<?xml version="1.0" standalone="no"?>
<!DOCTYPE svg PUBLIC "-//W3C//DTD SVG 20010904//EN"
 "http://www.w3.org/TR/2001/REC-SVG-20010904/DTD/svg10.dtd">
<svg version="1.0" xmlns="http://www.w3.org/2000/svg"
 width="99.000000pt" height="100.000000pt" viewBox="0 0 99.000000 100.000000"
 preserveAspectRatio="xMidYMid meet">

<g transform="translate(0.000000,100.000000) scale(0.100000,-0.100000)"
fill="#000000" stroke="none">
<path d="M369 965 c-145 -39 -276 -159 -323 -293 l-15 -42 167 -1 c92 0 207 0
255 1 87 1 137 13 137 33 0 6 -22 33 -49 62 -40 42 -50 60 -55 101 -4 27 -3
60 2 73 9 24 9 24 15 -7 5 -23 12 -32 27 -32 17 0 19 -3 8 -19 -9 -15 -9 -25
0 -45 14 -32 27 -33 37 -3 8 22 8 22 12 -3 9 -44 43 -70 43 -31 0 14 6 17 25
13 14 -2 25 -9 25 -14 0 -5 4 -7 9 -4 13 8 1 48 -20 69 -23 21 -25 39 -4 31
17 -7 19 9 5 37 -16 29 5 24 29 -7 12 -15 21 -37 21 -50 0 -17 4 -22 15 -17
13 4 12 -3 -5 -46 -12 -31 -19 -70 -18 -96 l3 -45 118 0 c118 0 118 0 111 23
-31 102 -127 218 -221 269 -100 55 -248 73 -354 43z"/>
<path d="M664 275 c-53 -70 -148 -104 -207 -74 -12 6 -34 23 -49 37 -26 23
-30 24 -66 14 -52 -16 -97 -15 -130 2 -18 9 -45 12 -79 9 l-53 -6 18 -29 c9
-17 39 -50 66 -74 l48 -44 279 0 279 0 41 37 40 36 -29 13 c-16 6 -49 35 -73
63 -24 28 -47 51 -51 51 -4 0 -19 -16 -34 -35z"/>
</g>
</svg>
